# xmcd
#
# Track frame offsets: 
#        150
#        12746
#        22833
#        36203
#        46596
#        55902
#        67617
#        80548
#        99372
#        111289
#        128622
#        141024
#        151910
#        160027
#        167032
#        183065
#        191546
#        199245
#
# Disc length: 2929 seconds
#
# Revision: 0
# Processed by: cddbd v1.5.2PL0 Copyright (c) Steve Scherf et al.
# Submitted via: ExactAudioCopy v0.99pb5
#
DISCID=d80b6f12
DTITLE=Soundtrack - The Eagle - Atil Örvarsson
DYEAR=2011
DGENRE=Soundtrack
TTITLE0=Testudio
TTITLE1=Highlands
TTITLE2=The Return Of The Eagle
TTITLE3=The Ninth Legion
TTITLE4=North Of The Wall
TTITLE5=Honourable Discharge
TTITLE6=Out Swords!
TTITLE7=May Your Swords Take Flight
TTITLE8=The Seal People
TTITLE9=Searching
TTITLE10=Barbarians
TTITLE11=I Will Return
TTITLE12=Better Angry Than Dead
TTITLE13=Eagle Lost, Honour Lost
TTITLE14=Fleeing The Village
TTITLE15=Edge Of The World
TTITLE16=Esca`s Freedom
TTITLE17=Beyond The Territories
EXTD=
EXTT0=
EXTT1=
EXTT2=
EXTT3=
EXTT4=
EXTT5=
EXTT6=
EXTT7=
EXTT8=
EXTT9=
EXTT10=
EXTT11=
EXTT12=
EXTT13=
EXTT14=
EXTT15=
EXTT16=
EXTT17=
PLAYORDER=
